# xmcd
#
# Track frame offsets: 
#        150
#        7948
#        25846
#        41154
#        61512
#        78265
#        98381
#        112060
#        131394
#        146426
#        164324
#        185429
#        208475
#        224781
#        231110
#        251631
#        271497
#        288908
#        308126
#        315405
#
# Disc length: 4422 seconds
#
# Revision: 3
# Processed by: cddbd v1.5.2PL0 Copyright (c) Steve Scherf et al.
# Submitted via: ExactAudioCopy v1.3
#
DISCID=16114414
DTITLE=Злой Дух - Путь Пацана
DYEAR=2005
DGENRE=Rap
TTITLE0=Интро
TTITLE1=Город (Оригинальная Версия)
TTITLE2=Фамилия 2005
TTITLE3=Про Хорька feat. Злой Дух Фамилия
TTITLE4=Казань-Самара feat. Капа
TTITLE5=Грязь feat. Клещ - Оригинал ЗДФ
TTITLE6=Путь Пацана
TTITLE7=Удача feat. Карандаш
TTITLE8=Друг Есть Друг, Враг Есть Враг
TTITLE9=Злость-Сука
TTITLE10=Гидра-п-п-п feat. Злой Дух Фамилия
TTITLE11=Бумеранги feat. Оригинал ЗДФ
TTITLE12=Пятаки feat. Добрый
TTITLE13=Вороны Заклевали (Скит)
TTITLE14=Ну Кто Мне Скажет feat. Фомич, Добрый
TTITLE15=Две Столицы feat. ЮГ
TTITLE16=Расстояния
TTITLE17=Вода, Повсюду Вода feat. Добрый
TTITLE18=Аутро
TTITLE19=Пар feat. Смоки Мо
EXTD=
EXTT0=
EXTT1=
EXTT2=
EXTT3=
EXTT4=
EXTT5=
EXTT6=
EXTT7=
EXTT8=
EXTT9=
EXTT10=
EXTT11=
EXTT12=
EXTT13=
EXTT14=
EXTT15=
EXTT16=
EXTT17=
EXTT18=
EXTT19=
PLAYORDER=
